<svg width="48" height="48" viewBox="0 0 48 48" fill="none" xmlns="http://www.w3.org/2000/svg">
<g clip-path="url(#clip0_28893_205186)">
<path d="M24 48C37.2548 48 48 37.2548 48 24C48 10.7452 37.2548 0 24 0C10.7452 0 0 10.7452 0 24C0 37.2548 10.7452 48 24 48Z" fill="black"/>
<path d="M39.8672 42.0057L18.4363 14.4004H14.3984V33.5924H17.6287V18.5027L37.3315 43.9591C38.2206 43.3641 39.0675 42.7111 39.8672 42.0057Z" fill="url(#paint0_linear_28893_205186)"/>
<path d="M33.868 14.4004H30.668V33.6004H33.868V14.4004Z" fill="url(#paint1_linear_28893_205186)"/>
</g>
<defs>
<linearGradient id="paint0_linear_28893_205186" x1="29.0651" y1="31.0671" x2="38.5318" y2="42.8004" gradientUnits="userSpaceOnUse">
<stop stop-color="white"/>
<stop offset="1" stop-color="white" stop-opacity="0"/>
</linearGradient>
<linearGradient id="paint1_linear_28893_205186" x1="32.268" y1="14.4004" x2="32.2144" y2="28.5004" gradientUnits="userSpaceOnUse">
<stop stop-color="white"/>
<stop offset="1" stop-color="white" stop-opacity="0"/>
</linearGradient>
<clipPath id="clip0_28893_205186">
<rect width="48" height="47.998" fill="white"/>
</clipPath>
</defs>
</svg>
